<svg width="515" height="351" viewBox="0 0 515 351" fill="none" xmlns="http://www.w3.org/2000/svg">
<path d="M35 231.5C35.6292 220.983 37.085 215.407 41.5 206C110.081 209.31 146.539 221.494 208 262C214.556 268.027 218.083 272.078 224 281C227.557 306.749 235.324 314.857 259.5 318C277.802 313.058 285.915 307.583 291 286C293.465 278.143 295.748 274.145 302 268C355.908 226.095 391.698 210.054 473.5 205.5L480 231C394.324 228.682 356.896 238.564 307.5 274.5C298.416 310.996 288.258 323.582 259.5 329.5C228.685 328.282 217.688 315.712 208 274.5C148.912 236.537 110.757 227.808 35 231.5Z" fill="white" stroke="white" stroke-width="5" stroke-linejoin="round"/>
<path d="M98 57.5L108 23.5C181.691 38.8557 215.875 58.852 256.5 127C295.126 63.077 326.742 38.635 408 23.5L420 58H428.5L456 164C363.294 177.216 325.722 200.531 274 259L282.5 266.5C333.069 213.934 375.225 195.619 471 186L443 79.5C451.982 77.8546 457.018 77.4382 466 79.5L512.104 274.326C508.779 281.245 505.819 286.855 499.5 289H325C309.468 330.066 295.208 342.512 261 348C222.467 345.316 206.39 331.832 190 288.5H14C7.10022 285.202 4.81744 281.795 3 273.5L48.5 81C57 79 60.8063 77.6272 69 82.5L43.5 186C141.329 196.784 182.839 214.422 232 267.5L240.5 258.5C217.5 217.5 149 176 59.5 164L82.5 79L84 57.5H98Z" fill="white"/>
<path d="M512.5 273.5C509.008 280.796 506.069 286.77 499.5 289H325C309.468 330.066 295.208 342.512 261 348C222.467 345.316 206.39 331.832 190 288.5H14C7.10022 285.202 4.81744 281.795 3 273.5L48.5 81C57 79 60.8063 77.6272 69 82.5L43.5 186C141.329 196.784 182.839 214.422 232 267.5L240.5 258.5C217.5 217.5 149 176 59.5 164L82.5 79L84 57.5H98L108 23.5C181.691 38.8557 215.875 58.852 256.5 127C295.126 63.077 326.742 38.635 408 23.5L420 58H428.5L456 164C363.294 177.216 325.722 200.531 274 259L282.5 266.5C333.069 213.934 375.225 195.619 471 186L443 79.5C451.982 77.8546 457.018 77.4382 466 79.5L512.5 276" stroke="white" stroke-width="5" stroke-linejoin="round"/>
<path d="M269.5 60C269.5 66.8269 263.758 72.5 256.5 72.5C249.242 72.5 243.5 66.8269 243.5 60C243.5 53.1731 249.242 47.5 256.5 47.5C263.758 47.5 269.5 53.1731 269.5 60Z" fill="white" stroke="white" stroke-width="5" stroke-linejoin="round"/>
<path d="M415.5 325C415.5 331.827 409.758 337.5 402.5 337.5C395.242 337.5 389.5 331.827 389.5 325C389.5 318.173 395.242 312.5 402.5 312.5C409.758 312.5 415.5 318.173 415.5 325Z" fill="white" stroke="white" stroke-width="5" stroke-linejoin="round"/>
<path d="M278.5 288C278.5 298.747 269.345 307.5 258 307.5C246.655 307.5 237.5 298.747 237.5 288C237.5 277.253 246.655 268.5 258 268.5C269.345 268.5 278.5 277.253 278.5 288Z" fill="#3B82F6" stroke="white" stroke-linejoin="round"/>
<path d="M126.5 325C126.5 331.827 120.758 337.5 113.5 337.5C106.242 337.5 100.5 331.827 100.5 325C100.5 318.173 106.242 312.5 113.5 312.5C120.758 312.5 126.5 318.173 126.5 325Z" fill="white" stroke="white" stroke-width="5" stroke-linejoin="round"/>
<path d="M228.5 28C228.5 34.8269 222.758 40.5 215.5 40.5C208.242 40.5 202.5 34.8269 202.5 28C202.5 21.1731 208.242 15.5 215.5 15.5C222.758 15.5 228.5 21.1731 228.5 28Z" fill="white" stroke="white" stroke-width="5" stroke-linejoin="round"/>
<path d="M271.5 15C271.5 22.9928 264.8 29.5 256.5 29.5C248.2 29.5 241.5 22.9928 241.5 15C241.5 7.0072 248.2 0.5 256.5 0.5C264.8 0.5 271.5 7.0072 271.5 15Z" fill="#3B82F6" stroke="white" stroke-linejoin="round"/>
<path d="M310.5 28C310.5 34.8269 304.758 40.5 297.5 40.5C290.242 40.5 284.5 34.8269 284.5 28C284.5 21.1731 290.242 15.5 297.5 15.5C304.758 15.5 310.5 21.1731 310.5 28Z" fill="white" stroke="white" stroke-width="5" stroke-linejoin="round"/>
<path d="M35 235.5C35.6292 224.983 37.085 219.407 41.5 210C110.081 213.31 146.539 225.494 208 266C214.556 272.027 218.083 276.078 224 285C227.557 310.749 235.324 318.857 259.5 322C277.802 317.058 285.915 311.583 291 290C293.465 282.143 295.748 278.145 302 272C355.908 230.095 391.698 214.054 473.5 209.5L480 235C394.324 232.682 356.896 242.564 307.5 278.5C298.416 314.996 288.258 327.582 259.5 333.5C228.685 332.282 217.688 319.712 208 278.5C148.912 240.537 110.757 231.808 35 235.5Z" fill="#3B82F6" stroke="white" stroke-width="5" stroke-linejoin="round"/>
<path d="M30 269L33.5 253.5C97.0968 249.967 125.824 253.591 166 269H30Z" fill="#3B82F6" stroke="white" stroke-width="5" stroke-linejoin="round"/>
<path d="M97 107.5L103.5 84C182.711 106.904 214.298 131.005 245 196.5C204.805 146.12 172.363 126.66 97 107.5Z" fill="#3B82F6" stroke="white" stroke-width="5" stroke-linejoin="round"/>
<path d="M86 150L92.5 126C179.462 145.007 214.444 169.253 251.5 237.5C198.099 185.995 161.3 167.704 86 150Z" fill="#3B82F6" stroke="white" stroke-width="5" stroke-linejoin="round"/>
<path d="M117.5 67L124 45C217.132 80.712 245.629 109.99 256 178C219.377 113.839 189.008 89.5883 117.5 67Z" fill="#3B82F6" stroke="white" stroke-width="5" stroke-linejoin="round"/>
<path d="M489.5 254.5L494.5 271.5H359C359.347 268.879 360.105 267.866 362 266.5C386.75 259.727 400.742 256.924 426 254.5C450.197 252.741 464.079 252.676 489.5 254.5Z" fill="#3B82F6"/>
<path d="M431 126.5C338.187 151.025 305.086 176.936 271.5 239.5C326.856 187.922 362.701 167.396 438.5 151.5L431 126.5Z" fill="#3B82F6"/>
<path d="M272.5 206.5C299.964 140.634 329.63 112.425 420 85L426.5 110C329.17 133.77 311.439 160.881 272.5 206.5Z" fill="#3B82F6"/>
<path d="M266 177.5C277.361 109.863 305.797 80.585 399 45L407.5 72C310.73 97.177 301.893 128.824 266 177.5Z" fill="#3B82F6"/>
<path d="M489.5 254.5L494.5 271.5H359C359.347 268.879 360.105 267.866 362 266.5C386.75 259.727 400.742 256.924 426 254.5C450.197 252.741 464.079 252.676 489.5 254.5Z" stroke="white" stroke-width="5" stroke-linejoin="round"/>
<path d="M431 126.5C338.187 151.025 305.086 176.936 271.5 239.5C326.856 187.922 362.701 167.396 438.5 151.5L431 126.5Z" stroke="white" stroke-width="5" stroke-linejoin="round"/>
<path d="M272.5 206.5C299.964 140.634 329.63 112.425 420 85L426.5 110C329.17 133.77 311.439 160.881 272.5 206.5Z" stroke="white" stroke-width="5" stroke-linejoin="round"/>
<path d="M266 177.5C277.361 109.863 305.797 80.585 399 45L407.5 72C310.73 97.177 301.893 128.824 266 177.5Z" stroke="white" stroke-width="5" stroke-linejoin="round"/>
</svg>
